<svg width="18" height="19" viewBox="0 0 18 19" fill="none" xmlns="http://www.w3.org/2000/svg">
    <path d="M3.62 8.73873C5.06 11.5687 7.38 13.8787 10.21 15.3287L12.41 13.1287C12.68 12.8587 13.08 12.7687 13.43 12.8887C14.55 13.2587 15.76 13.4587 17 13.4587C17.55 13.4587 18 13.9087 18 14.4587V17.9487C18 18.4987 17.55 18.9487 17 18.9487C7.61 18.9487 0 11.3387 0 1.94873C0 1.39873 0.45 0.94873 1 0.94873H4.5C5.05 0.94873 5.5 1.39873 5.5 1.94873C5.5 3.19873 5.7 4.39873 6.07 5.51873C6.18 5.86873 6.1 6.25873 5.82 6.53873L3.62 8.73873Z" fill="#3F51B5"/>
</svg>

