<?xml version="1.0" encoding="UTF-8"?>
<svg width="24px" height="24px" viewBox="0 0 24 24" version="1.1" xmlns="http://www.w3.org/2000/svg" xmlns:xlink="http://www.w3.org/1999/xlink">
    <title>tick</title>
    <g id="tick" stroke="none" stroke-width="1" fill="none" fill-rule="evenodd">
        <g id="icon/tick/green" fill-rule="nonzero">
            <circle id="Oval" fill="#008616" cx="12" cy="12" r="7.60467186"></circle>
            <path d="M21,12 C21,16.9705766 16.9705766,21 12,21 C7.02942339,21 3,16.9705766 3,12 C3,7.02942339 7.02942339,3 12,3 C16.9705766,3 21,7.02942339 21,12 Z M10.9589758,16.7654274 L17.6363952,10.0880081 C17.8631371,9.86126613 17.8631371,9.49360887 17.6363952,9.26686694 L16.815254,8.44572581 C16.5885121,8.21894758 16.2208548,8.21894758 15.9940766,8.44572581 L10.5483871,13.891379 L8.00592339,11.3489153 C7.77918145,11.1221734 7.41152419,11.1221734 7.18474597,11.3489153 L6.36360484,12.1700565 C6.1368629,12.3967984 6.1368629,12.7644556 6.36360484,12.9911976 L10.1377984,16.7653911 C10.3645766,16.9921694 10.7321976,16.9921694 10.9589758,16.7654274 L10.9589758,16.7654274 Z" id="Shape" fill="#FFFFFF"></path>
        </g>
    </g>
</svg>